<svg xmlns="http://www.w3.org/2000/svg" viewBox="0 0 492.56 212.21"><title>LogoSean</title><polygon points="369.42 0 492.56 106.11 390.52 212.22 102.04 212.22 0 106.11 123.14 0 369.42 0" fill="#d9f0d3"/><ellipse cx="202.81" cy="118.39" rx="91.79" ry="88.75" fill="#66c"/><ellipse cx="202.81" cy="118.39" rx="74.53" ry="72.07" fill="#ffcf5c"/><ellipse cx="202.81" cy="118.39" rx="55.32" ry="53.49" fill="#c66"/><ellipse cx="202.81" cy="118.39" rx="36.63" ry="35.42" fill="#f2f2f2"/><path d="M279.85,256.11H105.76L3.72,150l81.74-42.07A10,10,0,0,1,96.29,109Z" transform="translate(-3.72 -43.89)" fill="#9c9"/><path d="M347,58.4,496.28,150l-102,106.11H105.76L237.47,178,334.31,60.3A10,10,0,0,1,347,58.4Z" transform="translate(-3.72 -43.89)" fill="#696"/><path d="M477.7,169.32,291.1,69.63a10,10,0,0,0-14,5.24L207.47,256.11H394.24Z" transform="translate(-3.72 -43.89)" fill="#6c6"/></svg>