<svg xmlns="http://www.w3.org/2000/svg" viewBox="0 0 45 45"><title>github</title><path d="M45,4.21V40.79A4.21,4.21,0,0,1,40.79,45H29.71l-.24,0a1,1,0,0,1-.37-.13,1.12,1.12,0,0,1-.55-1c0-.75,0-3.24,0-6.33A5.52,5.52,0,0,0,27,33.23c5.14-.57,10.54-2.52,10.54-11.39a8.93,8.93,0,0,0-2.37-6.2,8.27,8.27,0,0,0-.23-6.11S33,8.91,28.6,11.9A21.81,21.81,0,0,0,17,11.9c-4.41-3-6.35-2.37-6.35-2.37a8.27,8.27,0,0,0-.23,6.11,9,9,0,0,0-2.37,6.2c0,8.85,5.39,10.83,10.52,11.41a5,5,0,0,0-1.47,3.09c-1.32.59-4.66,1.61-6.72-1.92A4.84,4.84,0,0,0,6.88,32s-2.25,0-.16,1.41a6.11,6.11,0,0,1,2.57,3.38s1.35,4.12,7.78,2.72c0,1.93,0,3.75,0,4.3a1.08,1.08,0,0,1-1,1.13.39.39,0,0,1-.15,0H4.21A4.21,4.21,0,0,1,0,40.79V4.21A4.21,4.21,0,0,1,4.21,0H40.79A4.21,4.21,0,0,1,45,4.21Z" style="fill:#ccc;opacity:0.8"/></svg>